<?xml version="1.0" standalone="no"?>
<!DOCTYPE svg PUBLIC "-//W3C//DTD SVG 20010904//EN"
 "http://www.w3.org/TR/2001/REC-SVG-20010904/DTD/svg10.dtd">
<svg version="1.0" xmlns="http://www.w3.org/2000/svg"
 width="238.000000pt" height="238.000000pt" viewBox="0 0 238.000000 238.000000"
 preserveAspectRatio="xMidYMid meet">
<metadata>
Created by potrace 1.14, written by Peter Selinger 2001-2017
</metadata>
<g transform="translate(0.000000,238.000000) scale(0.100000,-0.100000)"
fill="#000000" stroke="none">
<path d="M580 2015 c-12 -44 -10 -111 9 -218 5 -28 4 -50 -1 -53 -17 -11 -32
14 -34 56 -5 83 -71 173 -153 207 -119 50 -267 -28 -306 -161 -14 -49 -19 -55
-42 -53 -15 1 -30 -5 -36 -15 -14 -21 -10 -26 28 -31 31 -4 35 -9 59 -77 32
-88 102 -140 201 -148 52 -4 72 -1 109 18 49 23 113 90 122 127 5 19 11 22 33
17 14 -4 29 -8 33 -10 8 -5 -1 -63 -13 -86 -20 -37 3 -39 46 -4 l30 24 48 -77
c27 -42 62 -90 79 -107 l30 -32 -29 -26 -28 -27 -15 23 c-87 128 -261 155
-364 54 -69 -66 -92 -155 -64 -248 11 -38 10 -40 -17 -62 -42 -34 -13 -64 34
-34 16 10 25 6 62 -26 115 -98 274 -78 356 45 21 32 27 55 31 119 4 77 6 80
39 106 l35 27 71 -70 c40 -38 90 -85 113 -104 49 -44 48 -61 -4 -47 -20 6 -64
8 -97 5 -184 -14 -289 -192 -213 -359 52 -113 177 -185 299 -171 32 3 117 40
151 65 14 10 20 9 35 -4 10 -9 43 -23 73 -32 l55 -16 2 -49 c5 -198 278 -299
425 -156 91 89 99 213 20 312 -30 38 -104 83 -136 83 -13 0 -15 6 -10 28 4 15
8 28 9 30 2 2 32 -2 66 -8 35 -7 71 -13 79 -15 10 -1 17 -19 22 -49 13 -94 70
-173 155 -216 66 -34 169 -35 231 -2 101 53 154 140 158 257 7 217 -193 366
-378 281 -29 -14 -60 -31 -69 -38 -28 -24 -78 -99 -84 -128 -4 -17 -10 -32
-15 -35 -14 -9 -153 23 -162 37 -19 31 -9 44 30 40 54 -5 114 13 164 51 213
162 21 511 -244 442 -46 -12 -49 -11 -60 9 -19 38 -90 96 -132 108 -52 15
-131 11 -167 -8 -36 -18 -39 -18 -39 7 0 42 -24 100 -58 139 -67 80 -179 109
-281 75 -53 -17 -118 -74 -133 -117 -13 -38 -25 -35 -43 8 -40 95 -65 201 -45
189 6 -4 22 -4 36 -1 52 13 13 107 -67 159 l-26 18 -13 -46z m540 -642 c1 -44
34 -107 76 -141 21 -18 44 -32 50 -32 14 0 -8 -72 -24 -78 -11 -3 -130 91
-222 177 l-65 61 35 0 c19 1 58 9 85 19 67 25 65 25 65 -6z m320 -187 c0 -2
-7 -6 -15 -10 -8 -3 -15 -1 -15 4 0 6 7 10 15 10 8 0 15 -2 15 -4z m-280 -106
c8 -5 12 -11 9 -14 -3 -3 -14 1 -25 9 -21 16 -8 20 16 5z"/>
</g>
</svg>
